<?xml version="1.0" standalone="no"?>
<!DOCTYPE svg PUBLIC "-//W3C//DTD SVG 20010904//EN"
 "http://www.w3.org/TR/2001/REC-SVG-20010904/DTD/svg10.dtd">
<svg version="1.0" xmlns="http://www.w3.org/2000/svg"
 width="256.000000pt" height="226.000000pt" viewBox="0 0 256.000000 226.000000"
 preserveAspectRatio="xMidYMid meet">
<metadata>
Created by potrace 1.16, written by Peter Selinger 2001-2019
</metadata>
<g transform="translate(0.000000,226.000000) scale(0.100000,-0.100000)"
fill="#000000" stroke="none">
<path d="M942 2124 c-139 -30 -318 -87 -392 -124 -149 -76 -314 -225 -392
-356 -26 -44 -62 -120 -80 -169 -31 -86 -33 -96 -33 -240 0 -139 2 -156 28
-233 35 -101 67 -160 124 -232 111 -138 290 -246 457 -275 162 -28 292 -18
444 32 91 31 115 27 120 -21 5 -41 -33 -149 -91 -259 -58 -109 -57 -119 6
-150 142 -71 595 -55 737 24 52 30 58 51 26 97 -46 67 -59 111 -53 182 6 90
43 165 127 263 129 150 178 287 189 534 8 166 19 198 69 209 137 30 205 75
205 134 0 25 -8 41 -36 67 -32 28 -44 33 -88 33 -45 0 -57 -5 -91 -36 l-40
-35 -106 3 -107 3 -3 -27 c-4 -30 28 -58 65 -58 36 0 53 -26 53 -82 0 -60 -29
-138 -117 -310 -102 -199 -193 -296 -317 -338 -72 -24 -134 -26 -142 -5 -7 17
-3 22 140 191 131 155 160 199 186 283 24 76 25 120 5 188 -22 72 -57 99 -141
108 -95 11 -104 23 -104 133 0 104 -14 138 -96 224 -35 36 -54 65 -54 81 0 30
35 63 84 80 l39 13 -53 23 c-104 45 -189 62 -325 66 -111 4 -147 1 -243 -21z
m46 -390 c325 -67 475 -430 294 -710 -46 -71 -102 -119 -192 -165 -64 -33 -67
-34 -195 -34 -130 0 -130 0 -200 37 -97 50 -191 150 -230 244 -58 144 -42 302
46 434 69 103 164 168 285 194 90 19 101 19 192 0z"/>
<path d="M827 1574 c-11 -12 -8 -59 6 -73 10 -10 8 -15 -7 -26 -21 -16 -112
-29 -156 -23 -29 4 -30 3 -30 -36 0 -48 17 -113 31 -122 6 -3 19 2 30 12 44
39 99 -30 67 -85 -14 -26 -31 -30 -75 -16 -27 9 -31 -10 -19 -93 8 -51 12 -62
25 -57 43 17 134 36 158 33 26 -3 27 -6 24 -50 -2 -44 -1 -48 25 -54 52 -13
63 8 52 96 l-3 25 98 -2 97 -2 0 67 c0 86 -8 99 -48 83 -54 -23 -100 27 -72
79 9 17 19 21 52 18 l42 -3 -3 59 c-1 32 -7 69 -11 82 -8 20 -13 22 -33 15
-14 -5 -50 -14 -82 -20 -75 -14 -93 -4 -97 52 -3 39 -5 42 -33 45 -17 2 -34 0
-38 -4z"/>
</g>
</svg>
